<svg id="Capa_1" enable-background="new 0 0 512 512" height="512" viewBox="0 0 512 512" width="512" xmlns="http://www.w3.org/2000/svg"><g><g><path d="m205.492 415.217c-4.143 0-7.5 3.358-7.5 7.5v7.612h-63.394c-21.187 0-41.483 10.086-54.296 26.985l-4.042 5.34h-26.914v-71.292c0-8.592-6.989-15.582-15.581-15.582h-18.184c-8.592 0-15.581 6.99-15.581 15.582v105.057c0 8.591 6.989 15.581 15.581 15.581h105.058c8.592 0 15.581-6.99 15.581-15.582v-18.183c0-8.592-6.989-15.582-15.581-15.582h-25.25c9.998-10.915 24.315-17.325 39.21-17.325h70.894c4.143 0 7.5-3.358 7.5-7.5v-15.112c-.001-4.141-3.358-7.499-7.501-7.499zm-84.272 63.019v18.183c0 .321-.261.582-.581.582h-105.058c-.32 0-.581-.261-.581-.582v-105.057c0-.321.261-.582.581-.582h18.184c.32 0 .581.261.581.582v78.792c0 4.142 3.357 7.5 7.5 7.5h78.793c.32 0 .581.261.581.582z"/><path d="m496.419 0h-105.058c-8.592 0-15.581 6.99-15.581 15.582v18.183c0 8.592 6.989 15.582 15.581 15.582h71.293v71.292c0 8.592 6.989 15.582 15.581 15.582h18.184c8.592 0 15.581-6.99 15.581-15.582v-105.057c0-8.592-6.989-15.582-15.581-15.582zm.581 120.638c0 .321-.261.582-.581.582h-18.184c-.32 0-.581-.261-.581-.582v-78.792c0-4.142-3.357-7.5-7.5-7.5h-78.793c-.32 0-.581-.261-.581-.582v-18.182c0-.321.261-.582.581-.582h105.058c.32 0 .581.261.581.582z"/><path d="m15.581 136.22h18.184c8.592 0 15.581-6.99 15.581-15.582v-71.292h71.293c8.592 0 15.581-6.99 15.581-15.582v-18.182c0-8.592-6.99-15.582-15.581-15.582h-105.058c-8.592 0-15.581 6.99-15.581 15.582v105.057c0 8.591 6.989 15.581 15.581 15.581zm-.581-120.638c0-.321.261-.582.581-.582h105.058c.32 0 .581.261.581.582v18.183c0 .321-.261.582-.581.582h-78.793c-4.143 0-7.5 3.358-7.5 7.5v78.792c0 .321-.261.582-.581.582h-18.184c-.32 0-.581-.261-.581-.582z"/><path d="m496.419 375.78h-18.184c-8.592 0-15.581 6.99-15.581 15.582v71.292h-26.914l-4.045-5.345c-12.81-16.895-33.106-26.98-54.293-26.98h-63.394v-62.455c28.349-18.002 47.817-48.781 50.245-84.171h8.926c15.275 0 27.703-12.428 27.703-27.703v-80.813c0-45.932-36.074-83.586-81.377-86.143-3.547-22.939-23.425-40.556-47.342-40.556h-31.204c-4.143 0-7.5 3.358-7.5 7.5s3.357 7.5 7.5 7.5h31.204c18.145 0 32.906 14.762 32.906 32.907v74.752c0 18.145-14.762 32.906-32.906 32.906h-72.732c-40.425 0-73.312-32.888-73.312-73.313v-14.142c0-29.285 23.825-53.11 53.109-53.11h26.375c4.143 0 7.5-3.358 7.5-7.5s-3.357-7.5-7.5-7.5h-26.375c-37.556 0-68.109 30.554-68.109 68.11v14.142c0 7.722.999 15.214 2.87 22.357-1.898 7.158-2.87 14.576-2.87 22.09v80.813c0 15.275 12.428 27.703 27.703 27.703h8.926c2.428 35.391 21.896 66.169 50.245 84.171v19.487c0 4.142 3.357 7.5 7.5 7.5s7.5-3.358 7.5-7.5v-11.537c13.195 5.718 27.736 8.896 43.008 8.896s29.813-3.177 43.008-8.896v62.005c0 4.142 3.357 7.5 7.5 7.5h70.894c14.897 0 29.215 6.412 39.211 17.325h-25.251c-8.592 0-15.581 6.99-15.581 15.582v18.183c0 8.592 6.989 15.582 15.581 15.582h50.145c4.143 0 7.5-3.358 7.5-7.5s-3.357-7.5-7.5-7.5h-50.145c-.32 0-.581-.261-.581-.582v-18.183c0-.321.261-.582.581-.582h78.793c4.143 0 7.5-3.358 7.5-7.5v-78.792c0-.321.261-.582.581-.582h18.184c.32 0 .581.261.581.582v105.057c0 .321-.261.582-.581.582h-19.557c-4.143 0-7.5 3.358-7.5 7.5s3.357 7.5 7.5 7.5h19.557c8.592 0 15.581-6.99 15.581-15.582v-105.057c-.002-8.592-6.991-15.582-15.583-15.582zm-110.537-119.78c0 7.004-5.698 12.703-12.703 12.703h-8.662v-49.65h8.662c7.005 0 12.703 5.699 12.703 12.703zm0-80.813v31.963c-3.808-1.974-8.126-3.097-12.703-3.097h-16.162c-4.143 0-7.5 3.358-7.5 7.5v40.503l-23.657-34.41c-3.788-5.509-5.79-11.956-5.79-18.643v-27.856-67.02c36.757 2.809 65.812 33.595 65.812 71.06zm-199.996 42.828-23.403 34.04v-40.502c0-.211-.014-.419-.032-.626 7.329 3.393 15.195 5.814 23.435 7.088zm-35.641-13.962h-11.424c-4.577 0-8.895 1.123-12.703 3.097v-27.224c6.405 9.515 14.611 17.722 24.127 24.127zm-24.127 51.947v-24.244c0-7.004 5.698-12.703 12.703-12.703h8.662v49.65h-8.662c-7.005 0-12.703-5.699-12.703-12.703zm36.394 22.491 40.864-59.438h68.787c12.956 0 24.719-5.178 33.351-13.563 1.002 7.389 3.707 14.432 7.984 20.654l35.99 52.347c-1.219 50.512-42.687 91.229-93.488 91.229s-92.269-40.716-93.488-91.229z"/><path d="m504.5 311.13h-42.427c-4.143 0-7.5 3.358-7.5 7.5s3.357 7.5 7.5 7.5h42.427c4.143 0 7.5-3.358 7.5-7.5s-3.357-7.5-7.5-7.5z"/><path d="m388.583 301.205c-2.928-2.93-7.677-2.929-10.606 0s-2.929 7.678.001 10.606l12.122 12.122c1.406 1.407 3.313 2.197 5.303 2.197h34.346c4.143 0 7.5-3.358 7.5-7.5s-3.357-7.5-7.5-7.5h-31.239z"/><path d="m504.5 343.455h-62.63c-4.143 0-7.5 3.358-7.5 7.5s3.357 7.5 7.5 7.5h62.63c4.143 0 7.5-3.358 7.5-7.5s-3.357-7.5-7.5-7.5z"/><path d="m504.5 278.805h-42.427c-4.143 0-7.5 3.358-7.5 7.5s3.357 7.5 7.5 7.5h42.427c4.143 0 7.5-3.358 7.5-7.5s-3.357-7.5-7.5-7.5z"/><path d="m7.5 264.51h42.427c4.143 0 7.5-3.358 7.5-7.5s-3.357-7.5-7.5-7.5h-42.427c-4.143 0-7.5 3.358-7.5 7.5s3.357 7.5 7.5 7.5z"/><path d="m55.054 293.958-9.925-9.925c-2.93-2.929-7.678-2.929-10.607 0s-2.929 7.678 0 10.606l12.122 12.122c1.407 1.407 3.314 2.197 5.304 2.197h34.346c4.143 0 7.5-3.358 7.5-7.5s-3.357-7.5-7.5-7.5z"/><path d="m7.5 232.185h42.427c4.143 0 7.5-3.358 7.5-7.5s-3.357-7.5-7.5-7.5h-42.427c-4.143 0-7.5 3.358-7.5 7.5s3.357 7.5 7.5 7.5z"/></g></g></svg>